<svg xmlns="http://www.w3.org/2000/svg" version="1.1" width="512px" height="512px">
<g><path fill="#49545e" d="M 375.5,148.5 C 410.307,147.807 427.14,164.807 426,199.5C 418.864,224.997 402.031,236.497 375.5,234C 350.003,226.864 338.503,210.031 341,183.5C 345.348,164.653 356.848,152.986 375.5,148.5 Z"/></g>
<g><path fill="#48535f" d="M 102.5,169.5 C 169.167,169.333 235.834,169.5 302.5,170C 316.355,174.531 321.855,184.031 319,198.5C 315.977,206.192 310.477,211.025 302.5,213C 235.833,213.667 169.167,213.667 102.5,213C 88.5785,209.063 82.7451,199.896 85,185.5C 87.8606,176.802 93.694,171.468 102.5,169.5 Z"/></g>
<g><path fill="#49545e" d="M 119.5,276.5 C 154.307,275.807 171.14,292.807 170,327.5C 162.864,352.997 146.031,364.497 119.5,362C 94.0027,354.864 82.5027,338.031 85,311.5C 89.3477,292.653 100.848,280.986 119.5,276.5 Z"/></g>
<g><path fill="#48535e" d="M 208.5,297.5 C 275.167,297.333 341.834,297.5 408.5,298C 425.05,303.269 430.216,314.102 424,330.5C 420.474,336.352 415.307,339.852 408.5,341C 341.833,341.667 275.167,341.667 208.5,341C 194.645,336.469 189.145,326.969 192,312.5C 195.198,304.795 200.698,299.795 208.5,297.5 Z"/></g>
</svg>
